<?xml version="1.0" standalone="no"?>
<!DOCTYPE svg PUBLIC "-//W3C//DTD SVG 20010904//EN"
 "http://www.w3.org/TR/2001/REC-SVG-20010904/DTD/svg10.dtd">
<svg version="1.0" xmlns="http://www.w3.org/2000/svg"
 width="300.000000pt" height="168.000000pt" viewBox="0 0 300.000000 168.000000"
 preserveAspectRatio="xMidYMid meet">

<g transform="translate(0.000000,168.000000) scale(0.100000,-0.100000)"
fill="#000000" stroke="none">
<path d="M0 840 l0 -840 1500 0 1500 0 0 840 0 840 -1500 0 -1500 0 0 -840z
m1774 551 c3 -4 6 -204 6 -444 2 -486 2 -486 -67 -528 -43 -27 -146 -36 -183
-17 -34 19 -70 75 -70 112 0 37 30 89 62 110 13 9 58 24 100 35 42 10 81 22
87 25 17 11 15 435 -2 441 -15 6 -468 -82 -479 -93 -4 -4 -11 -50 -16 -102 -5
-52 -10 -76 -11 -52 -1 57 -18 54 -26 -5 -3 -27 -8 -55 -9 -63 -2 -8 -4 91 -5
221 -1 201 1 238 14 249 21 17 31 5 14 -16 -19 -23 -19 -165 0 -187 7 -10 28
-17 45 -17 35 0 209 44 202 51 -2 2 14 5 36 6 22 2 46 7 52 12 6 5 48 17 93
27 45 9 80 21 77 25 -3 5 6 11 18 14 16 4 27 18 36 45 16 52 16 56 -10 90 -24
33 -91 50 -126 31 -11 -6 -38 -13 -59 -16 -134 -19 -187 -25 -190 -22 -5 5
336 74 374 76 17 0 34 -3 37 -8z m-437 -77 c-3 -3 -12 -4 -19 -1 -8 3 -5 6 6
6 11 1 17 -2 13 -5z m-94 -21 c-7 -2 -19 -2 -25 0 -7 3 -2 5 12 5 14 0 19 -2
13 -5z m-27 -828 c-8 -121 -46 -167 -149 -183 -110 -17 -176 39 -168 144 1 28
60 91 91 99 19 5 16 0 -15 -21 -48 -33 -57 -44 -51 -67 2 -9 1 -15 -4 -12 -4
2 -7 -11 -6 -29 0 -19 4 -32 7 -30 10 6 31 -24 25 -35 -4 -5 -1 -13 5 -17 8
-5 9 -3 4 7 -7 11 -6 12 6 3 21 -16 79 -34 79 -25 0 5 16 11 35 14 19 3 45 16
59 29 26 25 70 142 62 164 -7 19 4 45 16 38 5 -4 7 -37 4 -79z"/>
</g>
</svg>
