<?xml version="1.0" standalone="no"?>
<!DOCTYPE svg PUBLIC "-//W3C//DTD SVG 20010904//EN"
 "http://www.w3.org/TR/2001/REC-SVG-20010904/DTD/svg10.dtd">
<svg version="1.0" xmlns="http://www.w3.org/2000/svg"
 width="32.000000pt" height="32.000000pt" viewBox="0 0 32.000000 32.000000"
 preserveAspectRatio="xMidYMid meet">

<g transform="translate(0.000000,32.000000) scale(0.100000,-0.100000)"
fill="#000000" stroke="none">
<path d="M0 160 l0 -160 160 0 160 0 0 160 0 160 -160 0 -160 0 0 -160z m200
52 c-19 -2 -40 -10 -47 -19 -12 -15 -38 -9 -28 8 9 13 67 26 90 20 15 -4 11
-7 -15 -9z m-80 -88 c0 -8 -4 -12 -10 -9 -5 3 -10 10 -10 16 0 5 5 9 10 9 6 0
10 -7 10 -16z m140 -15 c0 -24 -38 -49 -75 -49 -35 1 -72 24 -55 35 6 4 20 -1
30 -10 30 -27 70 -13 70 25 0 22 4 28 15 24 8 -4 15 -14 15 -25z"/>
</g>
</svg>
