<?xml version="1.0" standalone="no"?>
<!DOCTYPE svg PUBLIC "-//W3C//DTD SVG 20010904//EN"
 "http://www.w3.org/TR/2001/REC-SVG-20010904/DTD/svg10.dtd">
<svg version="1.0" xmlns="http://www.w3.org/2000/svg"
 width="750.000000pt" height="240.000000pt" viewBox="0 0 750.000000 240.000000"
 preserveAspectRatio="xMidYMid meet">

<g transform="translate(0.000000,240.000000) scale(0.100000,-0.100000)"
fill="#000000" stroke="none">
<path d="M4385 2298 c-2 -7 -22 -92 -43 -188 l-38 -174 -485 -82 c-294 -50
-488 -78 -494 -73 -5 5 -10 30 -11 56 -3 68 -20 64 -36 -9 -12 -59 -15 -62
-48 -69 -75 -16 -532 -70 -564 -67 l-34 3 54 113 c65 138 69 151 52 156 -190
62 -513 155 -518 149 -3 -4 -53 -109 -111 -232 l-104 -224 -175 6 c-96 4 -233
14 -305 22 -131 16 -355 51 -361 58 -2 2 3 35 11 73 8 38 15 91 15 117 0 101
-56 268 -92 275 -24 5 -97 -66 -135 -130 -37 -62 -63 -152 -63 -220 0 -26 -4
-48 -9 -48 -18 0 -278 93 -371 132 -120 51 -266 124 -366 183 -44 26 -81 42
-86 37 -11 -11 227 -144 377 -211 120 -53 334 -133 408 -152 44 -11 47 -14 47
-44 0 -18 3 -52 6 -77 l6 -44 -93 -67 c-75 -53 -99 -66 -119 -62 -85 20 -443
182 -551 250 -22 14 -41 21 -44 15 -15 -25 348 -203 578 -283 15 -6 8 -17 -42
-67 -57 -59 -121 -161 -121 -194 0 -9 -8 -16 -17 -16 -10 0 -95 38 -189 85
-94 47 -174 85 -178 85 -34 0 106 -80 264 -151 l104 -47 -2 -43 c-6 -102 44
-240 114 -320 22 -23 32 -40 24 -37 -128 47 -254 102 -348 149 -64 33 -117 59
-119 59 -2 0 -3 -5 -3 -11 0 -15 287 -152 425 -203 66 -24 147 -55 180 -70 33
-14 90 -28 126 -32 l66 -6 7 -61 c15 -144 3 -277 -25 -277 -5 0 -42 7 -83 16
l-74 17 20 34 c15 25 19 44 15 71 -18 112 -180 109 -217 -3 -6 -19 -16 -35
-21 -35 -17 0 -184 70 -282 119 -54 26 -100 44 -103 40 -6 -11 150 -90 286
-145 101 -41 105 -43 112 -78 35 -168 232 -223 358 -101 l35 34 95 -15 c52 -8
155 -17 228 -21 l132 -6 0 -27 c0 -15 9 -39 20 -52 64 -82 221 -50 251 51 13
43 6 40 152 57 l58 6 -16 -38 c-24 -56 -29 -74 -18 -74 6 0 24 26 41 58 l32
59 117 22 c65 12 182 38 261 57 79 20 146 33 149 30 3 -3 0 -12 -6 -20 -23
-28 -2 -39 61 -32 134 16 245 72 282 145 10 18 31 32 68 45 188 65 685 266
891 359 l77 36 0 -57 c0 -31 -3 -73 -6 -93 l-6 -36 -47 4 c-118 10 -184 -107
-87 -154 30 -14 42 -14 75 -5 68 21 87 55 95 169 4 54 9 119 12 144 l5 45 107
47 c59 25 193 84 297 130 285 125 425 181 432 173 4 -3 9 -32 11 -64 l4 -58
-36 4 c-30 4 -41 -1 -71 -31 -39 -39 -44 -66 -17 -90 31 -28 89 -22 124 13 30
30 30 31 23 113 -3 45 -8 94 -11 108 -5 25 0 28 121 74 69 26 128 45 132 42 3
-4 8 -39 11 -79 l4 -73 -41 0 c-69 -1 -118 -63 -87 -110 24 -36 85 -35 127 3
l32 28 -10 120 c-6 65 -9 122 -6 126 4 8 301 107 428 142 82 22 313 76 329 76
5 0 -28 -76 -39 -88 -1 -1 -14 3 -29 9 -59 27 -104 -32 -51 -67 41 -27 69 -7
112 79 l36 74 81 12 c486 67 873 13 1236 -172 150 -77 185 -107 120 -107 -29
0 -70 -29 -70 -49 0 -16 30 -41 48 -41 10 0 28 7 40 16 21 14 22 22 22 145 0
145 4 152 62 100 31 -28 33 -33 32 -98 l-1 -68 15 46 c21 67 10 107 -47 172
-27 31 -52 70 -56 87 -11 48 -23 25 -19 -35 3 -30 2 -55 -1 -55 -2 0 -46 27
-97 61 -106 70 -284 161 -408 209 -47 18 -89 37 -94 41 -5 5 5 40 24 84 18 41
31 77 29 79 -2 2 -44 15 -92 29 l-89 25 -35 -76 c-19 -43 -36 -78 -38 -80 -1
-1 -44 7 -95 18 -229 51 -657 90 -836 76 -68 -6 -83 -4 -87 9 -8 19 -36 20
-43 0 -4 -8 -17 -15 -30 -15 -19 0 -24 7 -30 38 -17 99 -87 158 -177 149 -41
-3 -56 -10 -79 -36 -36 -40 -38 -88 -5 -119 25 -24 76 -29 95 -10 18 18 14 56
-6 67 -23 12 -62 -11 -63 -37 0 -11 -6 -6 -13 12 -17 38 -7 74 27 100 23 17
31 18 66 8 47 -15 88 -59 97 -106 13 -71 18 -69 -186 -87 -102 -9 -273 -29
-380 -44 -107 -14 -202 -27 -211 -28 -11 -1 -35 34 -78 115 -48 93 -61 126
-61 162 0 43 -15 71 -25 44z m51 -262 c53 -52 57 -76 14 -76 -26 0 -33 7 -55
50 -43 84 -27 95 41 26z m2180 34 c16 -5 48 -14 72 -20 23 -6 40 -15 38 -19
-7 -10 -166 29 -166 41 0 11 20 10 56 -2z m-5482 -26 c37 -37 33 -98 -15 -192
-41 -84 -48 -88 -115 -73 -55 13 -55 13 -49 44 35 163 125 275 179 221z m4919
-10 c138 -13 310 -42 400 -65 23 -6 37 -16 37 -25 0 -11 -5 -14 -17 -9 -37 15
-52 17 -68 8 -10 -6 -46 -4 -98 4 -179 30 -746 27 -926 -4 -31 -5 -33 -4 -26
13 4 10 13 35 20 54 l13 35 119 5 c169 7 375 1 546 -16z m-733 -4 c0 -18 -27
-64 -47 -83 -14 -12 -74 -26 -199 -47 -99 -16 -267 -47 -374 -70 -107 -22
-198 -40 -203 -40 -4 0 0 14 8 31 9 16 19 52 22 79 4 33 11 51 22 54 24 7 393
55 538 70 164 17 233 19 233 6z m1388 -35 c5 -4 -27 -65 -34 -65 -8 0 -148 42
-152 45 -2 2 3 17 12 33 l16 30 77 -20 c43 -11 79 -21 81 -23z m-4303 -89 c99
-30 192 -58 208 -62 34 -8 41 -18 28 -42 -10 -18 -22 -16 -238 46 -125 36
-229 66 -231 68 -1 1 3 13 9 28 8 17 18 25 28 22 9 -3 97 -30 196 -60z m3878
23 c76 -11 90 -16 97 -35 5 -12 17 -25 27 -27 10 -3 -18 -2 -62 1 -154 13
-583 6 -716 -11 -419 -55 -783 -144 -1604 -393 -406 -124 -827 -246 -831 -241
-3 3 44 249 48 252 11 8 152 34 160 29 15 -10 3 -95 -23 -154 -12 -28 -19 -53
-16 -56 11 -11 67 102 77 156 15 75 17 80 34 80 14 0 549 124 590 136 12 4 16
2 11 -5 -13 -22 5 -61 37 -77 40 -21 102 -13 133 16 14 13 27 41 32 68 l8 47
60 17 c91 25 98 24 90 -14 -4 -18 -16 -50 -26 -70 -22 -42 -23 -48 -10 -48 6
0 24 30 41 68 18 37 35 74 40 82 5 10 60 26 161 47 160 33 544 103 567 103 22
0 6 -14 -43 -39 -25 -13 -44 -25 -42 -28 10 -10 95 20 147 52 50 30 66 34 180
44 69 6 139 13 155 15 68 9 595 -2 678 -15z m315 0 c39 -12 72 -26 72 -31 0
-5 -10 -6 -22 -2 -12 4 -48 7 -79 8 -62 1 -75 7 -66 31 8 19 8 19 95 -6z
m-2108 -39 c0 -58 -10 -64 -26 -17 -6 17 -14 40 -19 50 -6 14 -2 17 19 17 25
0 26 -3 26 -50z m-102 7 c22 -24 52 -87 52 -110 0 -10 -21 -19 -61 -26 -34 -7
-67 -15 -74 -17 -10 -4 -9 14 6 78 10 46 19 86 19 91 0 16 38 6 58 -16z m-92
-4 c-3 -10 -12 -49 -20 -86 -7 -37 -16 -70 -18 -73 -3 -2 -27 -7 -54 -10 -27
-3 -65 -12 -84 -19 -19 -8 -75 -24 -125 -35 -49 -12 -187 -44 -305 -71 -118
-27 -222 -52 -231 -55 -11 -3 -19 3 -23 18 -3 13 -26 58 -52 101 -25 43 -44
81 -40 84 4 4 187 37 409 75 221 37 422 72 447 77 77 15 102 14 96 -6z m2457
-17 c107 -40 207 -86 302 -139 115 -63 259 -157 252 -163 -3 -3 -38 16 -78 42
-132 84 -335 179 -489 229 -70 22 -70 23 -63 40 7 19 1 19 76 -9z m-227 8 c12
-3 27 -17 33 -31 10 -22 9 -25 -5 -19 -8 3 -40 9 -70 12 l-55 7 28 18 c31 20
39 21 69 13z m-220 -35 c257 -25 515 -95 722 -194 124 -60 286 -154 278 -162
-3 -3 -44 17 -93 45 -333 190 -759 283 -1171 256 -144 -10 -137 -12 -117 41 6
16 5 18 -5 8 -7 -6 -17 -22 -24 -34 -12 -25 -7 -24 -226 -59 -132 -21 -369
-75 -540 -123 -56 -16 -91 -21 -100 -15 -10 6 -63 -2 -155 -24 -133 -32 -140
-35 -143 -59 -3 -24 -19 -32 -245 -112 -133 -48 -312 -113 -397 -145 -118 -45
-156 -56 -158 -45 -8 33 7 43 65 43 32 0 63 4 69 8 7 4 14 33 15 65 l4 57 -60
-1 c-33 -1 -73 -4 -90 -8 -30 -6 -30 -6 -37 -95 -3 -49 -10 -92 -15 -97 -33
-33 -1103 -392 -1120 -375 -3 3 14 39 37 82 30 54 39 79 31 87 -13 13 -9 19
-70 -94 -37 -69 -58 -98 -74 -102 -12 -3 -91 -21 -175 -41 -130 -30 -255 -55
-419 -81 -29 -5 -32 -3 -38 27 -10 43 -34 91 -96 186 l-51 77 49 6 c26 4 104
12 173 19 455 45 854 139 1858 441 312 94 650 193 752 220 372 100 760 175
1015 197 146 13 425 14 551 1z m559 -71 c55 -22 141 -61 190 -87 105 -55 258
-151 251 -158 -2 -3 -38 15 -78 40 -151 92 -343 176 -498 218 -110 30 -106 27
-84 43 22 16 63 6 219 -56z m-4495 -1 c312 -92 303 -101 -108 -114 l-213 -6
36 79 c20 43 39 85 42 92 3 6 10 12 17 12 6 -1 108 -29 226 -63z m4100 -17
c269 -34 539 -125 760 -256 44 -26 78 -50 75 -52 -2 -3 -63 25 -134 62 -354
182 -753 242 -1206 181 -60 -8 -111 -15 -113 -15 -1 0 7 18 18 39 21 43 24 43
175 55 78 6 331 -3 425 -14z m-5457 -6 c35 -8 31 -19 -21 -62 l-42 -35 0 57
c0 50 2 57 18 52 9 -3 30 -8 45 -12z m4857 1 c0 -3 -9 -23 -20 -44 -16 -33
-25 -39 -62 -45 -98 -15 -384 -91 -552 -147 -98 -33 -181 -57 -183 -55 -2 2
-7 29 -10 59 l-6 56 54 15 c253 72 416 109 614 141 159 26 165 27 165 20z
m-2613 -37 c-3 -13 -13 -66 -22 -118 -10 -52 -21 -99 -25 -103 -14 -16 -683
-133 -715 -125 -7 2 12 55 54 145 61 132 68 143 96 147 17 3 116 14 220 26
105 11 228 27 275 34 123 20 123 20 117 -6z m-2012 -13 c155 -30 392 -56 568
-62 97 -3 177 -10 177 -15 0 -5 -12 -32 -26 -59 l-26 -51 -26 25 c-53 51 -136
62 -207 27 -97 -47 -89 -144 16 -198 35 -19 55 -22 96 -19 81 8 100 27 165
164 l58 123 148 1 c81 0 199 4 262 9 63 4 116 7 118 5 3 -3 -114 -255 -122
-262 -2 -2 -16 7 -31 21 -37 34 -88 49 -147 44 -70 -7 -111 -42 -133 -112 -5
-18 -19 -18 -338 -13 -224 3 -369 10 -447 21 -170 24 -374 66 -382 79 -18 28
-5 55 47 107 52 51 74 80 119 153 19 32 11 31 111 12z m2986 -41 c30 -36 -53
-80 -106 -56 -29 13 -33 46 -7 61 27 16 98 13 113 -5z m-898 -45 c21 -17 44
-43 52 -59 l14 -28 -71 -16 c-39 -9 -73 -14 -76 -12 -9 10 20 146 32 146 6 0
28 -14 49 -31z m1690 -126 c4 -21 3 -41 -1 -44 -10 -10 -246 -99 -250 -95 -1
2 -4 30 -5 61 l-2 58 110 28 c146 36 141 36 148 -8z m-280 -80 c4 -37 3 -70
-1 -74 -4 -3 -69 -32 -145 -63 -131 -54 -459 -196 -611 -265 -38 -17 -71 -30
-73 -28 -2 2 0 49 3 104 l7 101 196 72 c220 82 603 219 612 220 3 0 9 -30 12
-67z m-1536 45 c-2 -7 -10 -45 -17 -85 -12 -64 -15 -71 -31 -63 -10 6 -36 10
-59 10 -33 0 -48 -6 -71 -29 -34 -35 -36 -57 -8 -87 l21 -23 -38 -10 c-69 -18
-296 -69 -406 -90 -274 -53 -682 -101 -700 -83 -5 5 -12 38 -15 73 -6 81 -9
90 -26 83 -10 -3 -19 -34 -27 -84 l-12 -78 -57 -7 c-54 -6 -358 8 -468 21 -39
5 -53 11 -53 23 0 21 -44 111 -67 136 -36 41 -89 74 -138 87 -28 7 -53 17 -57
23 -4 5 -8 36 -8 69 0 55 1 58 23 53 12 -4 83 -17 159 -31 231 -43 408 -57
715 -57 l282 -1 16 -25 c35 -53 153 -80 213 -49 35 18 68 54 81 87 9 24 16 27
78 34 86 8 450 69 563 94 108 23 113 24 107 9z m-2287 -8 c0 -5 -5 -10 -11
-10 -5 0 -7 5 -4 10 3 6 8 10 11 10 2 0 4 -4 4 -10z m-2 -35 c2 -2 6 -37 9
-79 5 -68 4 -76 -13 -81 -52 -16 -110 -53 -141 -91 l-35 -41 -64 20 c-35 12
-64 26 -64 32 0 18 55 98 92 133 67 64 161 121 188 115 14 -3 26 -7 28 -8z
m2968 -297 c-3 -29 -6 -76 -6 -104 l0 -51 -212 -91 c-356 -152 -806 -330 -812
-320 -31 50 -40 58 -78 68 -23 7 -59 10 -80 8 -21 -2 -38 1 -38 6 0 4 18 42
41 82 l40 73 72 21 c244 71 647 205 922 309 72 27 136 49 144 50 11 1 12 -10
7 -51z m-3211 3 l50 -18 -3 -45 c-7 -94 43 -184 122 -222 46 -22 70 -20 27 2
-73 37 -99 117 -62 190 24 48 19 46 86 29 l50 -13 11 -155 c6 -85 9 -157 7
-161 -7 -13 -97 -9 -151 7 -99 30 -177 111 -206 216 -16 56 -21 144 -10 173 8
20 16 19 79 -3z m262 -47 c-7 -7 -67 8 -67 17 0 5 15 12 33 17 27 7 32 6 35
-11 2 -10 2 -21 -1 -23z m131 -1 c17 -13 32 -28 32 -32 0 -4 -25 -3 -55 2 -52
10 -55 12 -55 39 0 26 3 29 23 23 12 -4 37 -18 55 -32z m5 -54 c49 -10 57 -15
66 -42 15 -41 14 -101 -3 -141 -14 -34 -75 -91 -107 -99 -19 -5 -17 -18 -35
221 -6 82 -10 79 79 61z m432 -50 c105 -6 216 -8 248 -5 l58 6 -6 -43 c-4 -23
-17 -96 -28 -162 l-22 -120 -200 -3 c-182 -2 -359 10 -494 35 l-34 6 46 23
c94 49 167 153 167 243 l0 44 38 -6 c20 -4 123 -11 227 -18z m388 -149 c48
-30 107 -109 107 -142 0 -14 -8 -18 -38 -18 -36 0 -40 3 -75 64 -39 65 -62
126 -48 126 4 0 28 -13 54 -30z m716 -211 c-45 -85 -85 -157 -88 -161 -14 -16
-527 -135 -537 -125 -6 6 27 118 50 172 15 35 26 79 26 107 l0 46 73 12 c108
17 402 77 482 98 39 10 71 16 73 12 1 -4 -34 -76 -79 -161z m-1394 25 c74 -9
218 -17 333 -18 198 -1 203 -2 198 -21 -3 -11 -15 -78 -27 -150 -12 -72 -22
-131 -24 -133 -1 -1 -19 5 -41 14 -50 21 -104 13 -157 -22 -41 -27 -41 -27
-169 -20 -118 6 -234 18 -299 32 -26 5 -26 5 -12 48 12 34 13 70 6 171 l-8
127 35 -6 c19 -3 94 -13 165 -22z m795 -59 c0 -37 -4 -65 -10 -65 -5 0 -10 7
-10 15 0 9 -9 35 -20 57 -26 54 -25 58 10 58 l30 0 0 -65z m-127 6 c55 -61 83
-179 58 -244 -9 -22 -18 -25 -103 -35 -51 -5 -95 -8 -97 -6 -4 4 8 84 36 237
15 84 16 87 43 87 20 0 38 -12 63 -39z m861 0 c10 -11 16 -29 14 -42 -2 -19
-18 -27 -91 -52 -49 -16 -91 -27 -94 -24 -3 3 11 35 31 71 37 65 37 66 80 66
30 0 48 -6 60 -19z m-39 -127 c-33 -27 -115 -68 -158 -78 l-28 -7 16 30 c13
25 29 35 93 55 99 31 115 32 77 0z m-1860 -123 c42 -11 79 -22 82 -25 13 -13
-65 -46 -110 -46 -51 0 -78 10 -114 43 -32 28 -29 35 15 40 20 2 40 4 43 5 4
1 41 -7 84 -17z"/>
<path d="M5453 2223 c-15 -5 -17 -39 -4 -47 16 -10 41 5 41 24 0 19 -17 30
-37 23z"/>
</g>
</svg>
