<?xml version="1.0" standalone="no"?>
<!DOCTYPE svg PUBLIC "-//W3C//DTD SVG 20010904//EN"
 "http://www.w3.org/TR/2001/REC-SVG-20010904/DTD/svg10.dtd">
<svg version="1.0" xmlns="http://www.w3.org/2000/svg"
 width="1920.000000pt" height="1920.000000pt" viewBox="0 0 1920.000000 1920.000000"
 preserveAspectRatio="xMidYMid meet">

<g transform="translate(0.000000,1920.000000) scale(0.100000,-0.100000)"
fill="#000000" stroke="none">
<path d="M0 9600 l0 -9600 9600 0 9600 0 0 9600 0 9600 -9600 0 -9600 0 0
-9600z m5920 6040 c501 -19 1063 -66 1550 -130 41 -5 283 -10 537 -10 365 0
462 -3 458 -12 -2 -7 -6 -47 -9 -88 -11 -141 -27 -325 -31 -355 -3 -16 -7 -64
-10 -105 -3 -41 -18 -228 -35 -415 -52 -579 -79 -885 -91 -1025 -6 -74 -13
-145 -15 -157 -4 -23 -7 -23 -149 -23 l-145 0 0 63 c-2 478 -201 882 -566
1148 -186 134 -466 251 -729 304 -152 30 -165 32 -371 46 -505 35 -985 -77
-1334 -311 -108 -72 -276 -234 -337 -325 -130 -192 -194 -398 -195 -625 -2
-307 135 -548 472 -829 177 -147 213 -172 1005 -685 534 -346 1399 -910 1760
-1148 88 -58 198 -130 245 -161 179 -117 336 -235 333 -249 -2 -4 1 -7 6 -5
16 4 212 -173 205 -186 -4 -7 -4 -9 1 -5 11 11 126 -103 122 -122 -1 -8 -10
-14 -20 -12 -9 2 -17 -3 -17 -10 0 -8 9 -14 20 -15 11 -1 18 2 15 7 -3 4 2 11
11 14 12 5 15 2 10 -10 -4 -11 -2 -15 7 -11 13 5 17 -4 18 -45 0 -10 4 -18 9
-18 14 0 19 27 7 41 -10 11 -9 11 5 0 14 -10 15 -17 6 -36 -6 -14 -15 -22 -19
-19 -13 8 -11 -10 4 -25 8 -10 8 -12 0 -7 -6 3 -15 1 -18 -5 -4 -5 -14 -8 -24
-4 -13 5 -14 4 -3 -6 6 -7 12 -18 12 -24 -1 -5 -8 -1 -18 10 -9 11 -26 20 -37
19 -11 0 -27 5 -35 10 -13 10 -13 9 -1 -6 7 -10 17 -16 21 -13 13 8 53 -30 55
-51 1 -26 14 -46 26 -39 5 4 9 -3 9 -14 0 -12 -5 -21 -12 -21 -6 0 -9 2 -6 6
5 5 -18 33 -125 150 -32 34 -46 58 -41 66 4 7 3 10 -1 5 -11 -10 -46 23 -38
36 3 5 1 7 -5 3 -14 -8 -44 22 -36 36 4 6 3 8 -3 5 -12 -7 -99 70 -96 84 2 5
-3 8 -10 6 -6 -1 -11 4 -9 11 1 8 -2 11 -8 7 -6 -3 -36 16 -67 44 -31 28 -61
51 -66 51 -4 0 -5 5 -2 10 4 6 2 9 -3 8 -5 -2 -60 33 -123 78 -63 44 -219 148
-346 230 -1472 944 -2595 1680 -2763 1810 -336 261 -526 522 -598 819 -25 108
-22 340 7 473 59 271 180 484 388 682 331 317 803 490 1384 507 507 15 965
-91 1319 -305 236 -143 441 -349 566 -567 72 -127 145 -320 170 -449 11 -62
21 -28 33 114 7 74 16 182 21 240 5 58 12 132 15 165 3 33 14 159 25 280 11
121 27 299 35 395 9 96 20 220 25 274 5 55 7 103 4 108 -3 4 -184 8 -402 8
-283 0 -433 4 -522 15 -263 30 -720 71 -1000 89 -47 3 -123 9 -170 12 -161 12
-585 19 -730 12 -754 -35 -1404 -289 -1863 -727 -335 -320 -577 -777 -666
-1260 -84 -451 -74 -822 30 -1186 113 -397 316 -724 655 -1056 258 -252 201
-213 2449 -1704 804 -533 962 -650 1181 -874 370 -377 483 -779 367 -1296 -89
-398 -394 -772 -803 -987 -205 -107 -473 -192 -720 -228 -41 -6 -88 -13 -105
-16 -16 -4 -144 -8 -284 -11 -264 -5 -373 1 -594 38 -1017 166 -1783 846
-2017 1789 -45 184 -64 315 -76 534 l-7 129 -24 -47 c-37 -74 -118 -282 -152
-391 -114 -372 -165 -706 -164 -1075 0 -273 21 -436 75 -573 13 -33 163 -156
282 -231 474 -297 1147 -482 2026 -557 216 -18 787 -16 995 5 881 87 1541 322
2048 729 166 134 375 349 453 467 15 22 30 37 35 34 5 -3 6 2 3 11 -5 11 -2
14 10 9 9 -3 13 -11 9 -17 -3 -6 -1 -7 5 -3 7 4 17 16 22 27 8 15 7 19 -4 19
-10 0 -13 -6 -10 -17 5 -15 4 -15 -4 -4 -12 17 3 55 18 46 6 -3 7 0 4 8 -3 8
-1 18 5 21 13 8 9 -87 -4 -96 -6 -5 -5 -8 3 -8 8 0 12 -18 12 -54 0 -51 20
-90 37 -72 4 4 1 11 -7 16 -11 7 -12 10 -2 10 7 0 11 4 8 9 -6 9 19 9 29 0 2
-3 -9 -21 -25 -40 -21 -23 -28 -28 -24 -14 6 20 5 20 -10 1 -19 -23 -21 -40
-4 -30 6 4 3 -5 -8 -19 -21 -29 -29 -32 -40 -15 -5 7 -2 8 7 3 8 -5 11 -5 7 0
-4 4 -3 16 2 25 8 15 6 18 -8 15 -9 -2 -19 -4 -22 -5 -3 -1 -9 -2 -14 -1 -5 1
1 -13 12 -32 l20 -34 -25 -32 c-13 -17 -29 -31 -34 -31 -5 0 0 10 11 23 19 21
25 37 15 37 -3 0 -5 -3 -6 -7 0 -5 -9 -18 -21 -30 -12 -12 -17 -27 -13 -34 5
-7 4 -10 -2 -6 -6 4 -14 0 -17 -9 -4 -10 -2 -13 7 -8 6 4 -10 -16 -38 -44 -27
-28 -53 -48 -59 -45 -5 3 -6 1 -2 -5 7 -11 -140 -149 -155 -144 -5 1 -8 -4 -7
-10 2 -7 -5 -12 -14 -12 -10 1 -16 -2 -13 -6 7 -12 -66 -70 -79 -63 -6 3 -8 3
-4 -2 11 -12 -122 -110 -271 -199 -435 -260 -924 -424 -1523 -511 -350 -50
-841 -67 -1238 -41 -140 9 -266 19 -280 21 -14 2 -54 6 -90 10 -349 35 -793
128 -1105 231 -431 143 -739 307 -987 528 -58 51 -71 68 -88 122 -126 377
-118 933 19 1507 77 318 200 643 318 840 l34 57 132 0 132 0 -4 -227 c-2 -139
1 -269 9 -333 114 -993 822 -1749 1830 -1954 209 -43 292 -50 570 -50 177 -1
307 4 365 12 497 73 853 230 1121 496 238 237 364 523 381 866 21 422 -155
724 -644 1104 -158 123 -282 209 -703 488 -1262 837 -2131 1414 -2188 1454
-235 167 -544 453 -694 644 -301 384 -462 749 -528 1195 -24 158 -29 495 -10
670 88 840 462 1489 1105 1920 433 290 1011 466 1615 492 80 3 147 7 149 9 6
6 91 4 351 -6z m6005 -2165 c563 -31 993 -84 1515 -186 312 -61 844 -194 835
-209 -3 -5 4 -6 15 -3 12 3 20 0 20 -6 0 -7 5 -9 10 -6 15 9 51 -5 44 -17 -4
-7 -2 -8 5 -4 16 10 64 -2 56 -14 -3 -5 8 -8 25 -8 17 1 33 -2 37 -5 3 -4 -8
-7 -25 -7 -18 0 -32 -4 -32 -9 0 -10 63 -7 80 4 5 3 10 1 10 -4 0 -6 -7 -11
-15 -11 -21 0 -19 -20 3 -21 10 0 12 -3 4 -6 -10 -4 -12 -133 -12 -619 1 -552
2 -614 16 -614 9 0 14 6 11 13 -3 7 3 13 14 13 17 0 17 -1 2 -19 -16 -17 -16
-20 1 -47 21 -36 12 -59 -13 -36 -10 9 -22 13 -27 9 -5 -5 -6 -4 -1 1 4 5 0
18 -10 28 -9 10 -11 18 -5 18 6 0 16 -9 22 -20 16 -29 32 -25 18 5 -6 14 -17
25 -25 25 -7 0 -13 6 -13 14 0 8 -4 18 -10 21 -5 3 -7 0 -4 -8 12 -32 -15 -25
-42 11 -15 20 -49 62 -76 93 -26 31 -44 60 -40 64 4 5 2 5 -4 2 -16 -9 -38 19
-28 35 4 7 4 10 -1 6 -11 -11 -36 12 -28 25 3 5 2 8 -3 5 -5 -4 -62 45 -127
107 -66 62 -122 115 -125 116 -4 2 -6 7 -4 12 1 4 -2 6 -7 5 -5 -2 -49 27 -97
64 -354 266 -794 455 -1274 547 -280 53 -416 65 -780 65 -391 1 -522 -11 -835
-75 -447 -93 -884 -299 -1235 -583 -174 -140 -392 -373 -538 -573 -193 -263
-384 -640 -517 -1018 -16 -44 -32 -84 -36 -89 -5 -5 -38 19 -76 55 -90 85
-285 240 -403 321 -52 36 -252 168 -445 293 -583 379 -625 407 -625 418 0 15
99 135 228 277 1018 1117 2604 1654 4567 1545z m2625 -490 c0 -8 -4 -15 -10
-15 -5 0 -10 7 -10 15 0 8 5 15 10 15 6 0 10 -7 10 -15z m26 -4 c-4 -5 -1 -12
4 -14 6 -3 5 -4 -2 -3 -15 3 -23 26 -8 26 6 0 9 -4 6 -9z m49 -19 c-3 -3 -11
0 -18 7 -9 10 -8 11 6 5 10 -3 15 -9 12 -12z m60 -22 c-3 -5 -12 -10 -18 -10
-7 0 -6 4 3 10 19 12 23 12 15 0z m-113 -1344 c7 4 8 2 4 -5 -9 -13 -26 -5
-25 12 0 9 2 8 6 -1 2 -6 10 -9 15 -6z m68 -91 c0 -5 -5 -3 -10 5 -5 8 -10 20
-10 25 0 6 5 3 10 -5 5 -8 10 -19 10 -25z m-5930 -1400 c0 -19 -30 -27 -37 -9
-3 8 -3 18 1 21 3 4 6 -2 6 -12 0 -14 3 -16 12 -7 8 8 8 15 -3 29 -13 16 -12
17 4 4 9 -7 17 -19 17 -26z m-72 -75 c-2 -22 -6 -40 -10 -40 -9 0 -10 26 -2
58 10 34 15 26 12 -18z m122 0 c0 -5 -5 -10 -11 -10 -5 0 -7 5 -4 10 3 6 8 10
11 10 2 0 4 -4 4 -10z m67 -105 c0 -8 -4 -12 -9 -9 -5 3 -6 10 -3 15 9 13 12
11 12 -6z m-156 -14 c-9 -6 -10 -11 -2 -15 6 -4 14 0 18 10 6 15 7 14 15 -5 4
-13 4 -29 0 -38 -7 -11 -14 -8 -34 19 -26 33 -26 34 -5 36 16 1 18 -1 8 -7z
m45 -70 c-3 -5 3 -20 14 -34 11 -14 20 -29 20 -33 0 -4 -11 7 -25 26 -21 29
-25 50 -9 50 3 0 3 -4 0 -9z m-2407 -1025 c170 -113 389 -277 490 -366 88 -77
229 -233 252 -278 8 -15 17 -29 20 -32 4 -3 16 -24 27 -47 18 -39 18 -43 4
-44 -11 0 -12 -2 -4 -6 6 -2 12 -12 12 -20 0 -8 6 -13 13 -10 8 3 14 -1 14 -8
0 -7 -6 -11 -13 -8 -11 4 -14 -59 -16 -326 -2 -182 0 -332 4 -334 4 -1 1 -15
-7 -31 -8 -15 -15 -33 -15 -39 0 -19 -92 -161 -144 -221 -70 -83 -125 -132
-214 -194 -86 -59 -269 -155 -282 -147 -10 6 -56 153 -99 315 -85 324 -148
709 -171 1055 -11 169 -14 825 -3 825 3 0 63 -38 132 -84z m9646 -507 c-60
-14 -69 -19 -59 -29 5 -5 7 -86 4 -190 -3 -100 -1 -185 3 -189 10 -10 -23 -82
-35 -75 -4 3 -5 10 -2 16 4 6 8 27 10 46 3 33 2 34 -12 16 -15 -19 -15 -19 -9
1 3 11 2 16 -2 11 -4 -4 -8 -41 -9 -82 0 -42 3 -69 7 -62 5 7 6 24 3 38 -4 22
-3 23 5 4 10 -22 3 -77 -8 -70 -9 6 -8 113 -10 -1248 l-1 -1178 -22 -32 c-21
-30 -110 -123 -94 -98 5 8 2 10 -9 5 -13 -4 -14 -8 -4 -14 9 -5 2 -17 -24 -43
-37 -36 -55 -46 -41 -24 4 7 3 8 -5 4 -6 -4 -9 -12 -5 -17 17 -28 -323 -315
-572 -484 -573 -389 -1333 -709 -2090 -879 -543 -121 -1038 -177 -1599 -179
-292 -1 -361 1 -645 23 -1395 107 -2605 671 -3411 1590 -138 157 -237 286
-228 294 2 2 56 20 119 41 579 190 1071 482 1401 830 52 56 69 66 69 42 0 -7
23 -76 50 -152 414 -1143 1144 -1831 2160 -2035 810 -163 1693 17 2293 468
247 186 421 392 559 660 l68 134 0 1117 c0 1224 3 1169 -60 1296 -55 113 -159
207 -281 255 -116 46 -159 53 -368 59 l-205 6 3 65 c1 35 4 67 6 70 2 3 698 3
1547 1 958 -2 1528 -7 1503 -12z m160 -199 c3 -6 -1 -7 -9 -4 -18 7 -21 14 -7
14 6 0 13 -4 16 -10z m-165 -65 c0 -8 -7 -15 -16 -15 -14 0 -14 3 -4 15 7 8
14 15 16 15 2 0 4 -7 4 -15z m61 -18 c-10 -9 -11 -8 -5 6 3 10 9 15 12 12 3
-3 0 -11 -7 -18z m-32 -21 c-7 -14 -16 -26 -21 -26 -5 0 -6 -4 -3 -10 3 -5 2
-10 -3 -10 -6 0 -13 7 -16 16 -3 8 -2 12 4 9 6 -3 13 2 17 12 8 23 25 45 30
40 2 -3 -2 -16 -8 -31z m-45 -52 c3 -8 2 -12 -4 -9 -6 3 -10 10 -10 16 0 14 7
11 14 -7z m-9 -34 c-3 -5 -12 -10 -18 -10 -7 0 -6 4 3 10 19 12 23 12 15 0z
m-68 -72 c-3 -8 -6 -5 -6 6 -1 11 2 17 5 13 3 -3 4 -12 1 -19z m-8726 -471
c-10 -9 -11 -8 -5 6 3 10 9 15 12 12 3 -3 0 -11 -7 -18z m1583 -258 c-3 -5
-10 -7 -15 -4 -5 4 -9 -3 -9 -14 0 -11 -4 -22 -9 -25 -4 -3 -6 7 -4 22 l4 27
-15 -25 c-17 -28 -22 -19 -5 11 5 11 14 17 19 14 5 -3 11 -1 15 5 4 6 11 8 16
4 5 -3 7 -10 3 -15z m-4 -53 c0 -3 -4 -8 -10 -11 -5 -3 -10 -1 -10 4 0 6 5 11
10 11 6 0 10 -2 10 -4z m47 -67 c0 -21 -3 -26 -9 -16 -4 9 -5 22 -2 31 9 23
11 20 11 -15z m36 -4 c-3 -9 -8 -14 -10 -11 -3 3 -2 9 2 15 9 16 15 13 8 -4z
m-201 -227 c-7 -7 -12 -8 -12 -2 0 14 12 26 19 19 2 -3 -1 -11 -7 -17z"/>
<path d="M8487 10324 c-3 -3 -3 -13 0 -21 5 -12 7 -12 15 -1 7 10 10 10 19 -4
5 -10 15 -18 21 -18 6 0 -1 11 -16 25 -30 27 -30 28 -39 19z"/>
<path d="M8523 10255 c0 -6 8 -11 17 -11 9 0 17 5 17 11 0 6 -8 11 -17 11 -9
0 -17 -5 -17 -11z"/>
<path d="M8596 10172 c-2 -4 4 -8 14 -8 10 0 16 4 14 8 -3 4 -9 8 -14 8 -5 0
-11 -4 -14 -8z"/>
<path d="M8501 10151 c-10 -7 -7 -9 12 -8 14 1 23 5 20 10 -6 9 -15 9 -32 -2z"/>
<path d="M8490 10126 c0 -4 7 -14 15 -22 8 -9 15 -11 15 -6 0 5 -7 15 -15 22
-8 7 -15 9 -15 6z"/>
<path d="M8577 10020 c9 -11 19 -17 21 -15 6 6 -18 35 -29 35 -5 0 -1 -9 8
-20z"/>
<path d="M8541 6894 c0 -11 3 -14 6 -6 3 7 2 16 -1 19 -3 4 -6 -2 -5 -13z"/>
<path d="M8511 6867 c-13 -21 -12 -21 5 -5 10 10 16 20 13 22 -3 3 -11 -5 -18
-17z"/>
<path d="M8525 6849 c-11 -17 1 -21 15 -4 8 9 8 15 2 15 -6 0 -14 -5 -17 -11z"/>
<path d="M8450 6741 c0 -5 5 -13 10 -16 6 -3 10 -2 10 4 0 5 -4 13 -10 16 -5
3 -10 2 -10 -4z"/>
<path d="M14370 11901 c0 -9 4 -22 9 -29 7 -11 9 -10 14 3 4 9 3 13 -3 10 -13
-8 -13 8 0 21 7 7 6 11 -5 11 -8 0 -15 -7 -15 -16z"/>
<path d="M14340 11891 c0 -6 4 -13 10 -16 6 -3 7 1 4 9 -7 18 -14 21 -14 7z"/>
<path d="M14385 11830 c10 -11 20 -20 23 -20 3 0 -3 9 -13 20 -10 11 -20 20
-23 20 -3 0 3 -9 13 -20z"/>
<path d="M14421 11824 c5 -6 7 -20 3 -30 -5 -16 -4 -16 5 -4 9 13 15 8 12 -12
0 -4 8 -6 19 -5 11 1 19 5 17 10 -1 5 -6 8 -11 7 -9 -2 -26 19 -26 32 0 4 7 5
15 2 8 -4 15 -2 15 3 0 5 -13 9 -29 8 -21 0 -27 -3 -20 -11z"/>
<path d="M8680 9880 c0 -5 5 -10 11 -10 5 0 7 5 4 10 -3 6 -8 10 -11 10 -2 0
-4 -4 -4 -10z"/>
<path d="M15800 5304 c0 -8 5 -12 10 -9 6 3 10 10 10 16 0 5 -4 9 -10 9 -5 0
-10 -7 -10 -16z"/>
<path d="M15783 5283 c4 -3 1 -13 -6 -22 -11 -14 -10 -14 5 -2 16 12 16 31 1
31 -4 0 -3 -3 0 -7z"/>
</g>
</svg>
